<svg xmlns="http://www.w3.org/2000/svg" viewBox="0 0 100 100">
  <defs>
    <linearGradient id="bg" x1="0%" y1="0%" x2="100%" y2="100%">
      <stop offset="0%" style="stop-color:#3B82F6;stop-opacity:1" />
      <stop offset="100%" style="stop-color:#2563EB;stop-opacity:1" />
    </linearGradient>
  </defs>
  <rect width="100" height="100" rx="20" fill="url(#bg)"/>
  <g fill="none" stroke="white" stroke-width="4" stroke-linecap="round" stroke-linejoin="round">
    <!-- Microphone body -->
    <rect x="38" y="20" width="24" height="35" rx="12" />
    <!-- Microphone stand -->
    <path d="M50 55 L50 70" />
    <path d="M38 70 L62 70" />
    <!-- Sound waves -->
    <path d="M28 37.5 C28 37.5 25 42.5 25 47.5 C25 52.5 28 57.5 28 57.5" opacity="0.7"/>
    <path d="M72 37.5 C72 37.5 75 42.5 75 47.5 C75 52.5 72 57.5 72 57.5" opacity="0.7"/>
    <path d="M20 32.5 C20 32.5 15 42.5 15 47.5 C15 52.5 20 62.5 20 62.5" opacity="0.4"/>
    <path d="M80 32.5 C80 32.5 85 42.5 85 47.5 C85 52.5 80 62.5 80 62.5" opacity="0.4"/>
  </g>
</svg>
